<svg xmlns="http://www.w3.org/2000/svg" viewBox="0 0 64.54 62.65"><defs><style>.cls-1{fill:#fff;}</style></defs><g id="Layer_2" data-name="Layer 2"><g id="Layer_1-2" data-name="Layer 1"><path class="cls-1" d="M64.54,58.17c-1.32,1.37-2.61,2.77-4,4.1a1.5,1.5,0,0,1-2,0c-.39-.32-.74-.69-1.09-1L50,53.71a1.9,1.9,0,0,1-.67-1.85.53.53,0,0,0-.09-.39c-.68-.72-1.39-1.43-2.2-2.27,0,.41,0,.63,0,.85v9c0,1.52-.57,2.1-2.09,2.1h-26a3.33,3.33,0,0,1-.63,0,.82.82,0,0,1-.75-.8.84.84,0,0,1,.61-1,3.14,3.14,0,0,1,.87-.08H45V50.06l-1.69.72v4.65c0,1.46-.6,2.06-2.07,2.06H5.57v1.72h8a2.28,2.28,0,0,1,.74.09.84.84,0,0,1,.61,1,.86.86,0,0,1-.76.8,2.48,2.48,0,0,1-.38,0H5.45a1.63,1.63,0,0,1-1.82-1.83V57.49H1.88A1.68,1.68,0,0,1,0,55.62V1.87A1.66,1.66,0,0,1,1.87,0c1.32,0,2.65,0,4,0H41c.26,0,.51,0,.76,0a1.62,1.62,0,0,1,1.59,1.63c0,.31,0,.63,0,1v1h1.41c1.67,0,2.22.55,2.22,2.24V20.43c.89.13,1.14.84,1.36,1.58a4.75,4.75,0,0,0,3.25,3.24l.6.2a1.33,1.33,0,0,1,0,2.52l-.55.22a16.12,16.12,0,0,1-.71,16.73c.78.77,1.56,1.56,2.37,2.33a.75.75,0,0,0,.54.15,1.66,1.66,0,0,1,1.56.48q1.53,1.5,3,3a.95.95,0,1,1-1.33,1.33c-1-.94-1.89-1.9-2.79-2.81l-2.88,2.89,8.16,8.16,2.9-2.91c-.67-.65-1.41-1.36-2.14-2.08a.8.8,0,0,1-.17-1.13,2.16,2.16,0,0,1,1-.47c.11,0,.32.1.43.21.86.84,1.7,1.69,2.54,2.55a3.94,3.94,0,0,1,.39.63ZM25.27,26.27H8.21a2.62,2.62,0,0,1-.69,0,.94.94,0,0,1,.11-1.84,4.39,4.39,0,0,1,.63,0H26.59a1.33,1.33,0,0,0,.73-.11c1.21-.84,2.39-1.72,3.61-2.6-.66,0-1.34,0-2,0a.91.91,0,0,1-.9-1.21,1,1,0,0,1,1.09-.66c1.64,0,3.28,0,4.91,0,.85,0,1.78-.29,2.52.44,0,0,.12,0,.18,0l4.76.19V19.9c0-1.62,0-3.24,0-4.85,0-.85.78-1.36,1.39-.9a1.48,1.48,0,0,1,.47,1c.05,1.85,0,3.7,0,5.55a.74.74,0,0,0,.23.56,12.73,12.73,0,0,0,1.44.63V5.53H43.35v.71c0,1.38,0,2.77,0,4.16a1,1,0,0,1-1.3,1,1,1,0,0,1-.59-1.08c0-2.56,0-5.12,0-7.69V1.93H1.93V55.55H41.44V51.41c-.07,0-.11,0-.15,0l-.3,0a13,13,0,0,1-6.31-.07,21.31,21.31,0,0,0-6.59-.63H8.3c-.21,0-.42,0-.63,0a.92.92,0,0,1-.88-1,.89.89,0,0,1,.87-.91,4.42,4.42,0,0,1,.63,0H28.6c-.85-.81-1.62-1.57-2.43-2.29a1.56,1.56,0,0,0-.91-.39c-1-.06-1.93,0-2.89,0-.79,0-1.28-.72-.9-1.32a1.48,1.48,0,0,1,1-.54,16,16,0,0,1,2,0,20.65,20.65,0,0,1-1-2c-.19-.57-.51-.68-1.06-.67-4.7,0-9.41,0-14.11,0a5.42,5.42,0,0,1-.57,0,.94.94,0,0,1-.09-1.86,3.29,3.29,0,0,1,.63,0h14.3L22.11,37H8.22c-.29,0-.67,0-.85-.12a1.36,1.36,0,0,1-.53-.94c0-.29.43-.58.73-.79.14-.1.41,0,.62,0H22.11l.4-2.73H8.25c-.21,0-.42,0-.63,0a.86.86,0,0,1-.82-.81.85.85,0,0,1,.67-1,2.19,2.19,0,0,1,.68-.07h6.93c2.5,0,5,0,7.5,0a.87.87,0,0,0,.64-.3C23.92,28.89,24.57,27.6,25.27,26.27Zm15.4-.06a10.07,10.07,0,0,0-11.58,4.61,10.2,10.2,0,0,0,15.2,13.11,10,10,0,0,0,3.22-11.07c-1.1.25-1.67,0-2-1A5.23,5.23,0,0,0,41.7,28C40.77,27.76,40.5,27.21,40.67,26.21Zm3.76-2.39a13.73,13.73,0,0,0-17.29,3.4,13.86,13.86,0,1,0,22.68,1.84c-.27.31-.52.62-.78.91a1,1,0,0,0-.11,1.15,11.68,11.68,0,0,1-1.5,12.24A11.37,11.37,0,0,1,36,47.89a11.38,11.38,0,0,1-9.61-8.37,11.4,11.4,0,0,1,3.22-12.28c3.59-3.41,7.87-4.18,12.54-2.56a1.48,1.48,0,0,0,1.6-.24C44,24.26,44.16,24.06,44.43,23.82Zm-.91,2.9a6.26,6.26,0,0,1,3.34,3.33,6.24,6.24,0,0,1,3.36-3.34,6.24,6.24,0,0,1-3.36-3.32A6.39,6.39,0,0,1,43.52,26.72Zm7.12,23.34L52,48.8l-2.17-2.17-1.36,1.25Z"/><path class="cls-1" d="M54.26,19.34c1.34.09,1.71.29,1.74.93s-.28.85-1.77,1.05c-.09.7.16,1.74-1,1.75s-.9-1-1-1.78c-.74-.09-1.78.19-1.75-1s1-.88,1.75-1c.11-.71-.18-1.69,1-1.75C53.89,17.54,54.07,17.89,54.26,19.34Z"/><path class="cls-1" d="M16.64,19.78H25a3.16,3.16,0,0,1,.69,0,.92.92,0,0,1,0,1.81,2.74,2.74,0,0,1-.5,0H8.07a2.12,2.12,0,0,1-.44,0,.92.92,0,0,1,0-1.84,4.42,4.42,0,0,1,.63,0Z"/><path class="cls-1" d="M21.7,7.94h7.93a3.94,3.94,0,0,1,.69,0,.84.84,0,0,1,.72.84.85.85,0,0,1-.65.95,3.69,3.69,0,0,1-.82.06H13.78c-1,0-1.48-.3-1.48-.95s.44-.94,1.47-1Z"/><path class="cls-1" d="M27.23,15.18h8a2.7,2.7,0,0,1,.57,0,.89.89,0,0,1,.77.93.91.91,0,0,1-.79.92,2.14,2.14,0,0,1-.44,0H19.1a2.14,2.14,0,0,1-.44,0,.94.94,0,0,1-.05-1.85,2.64,2.64,0,0,1,.63,0Z"/><path class="cls-1" d="M13.38,46.14H8c-.55,0-1-.13-1.16-.74a.89.89,0,0,1,.8-1.12,8.49,8.49,0,0,1,1.13,0h9.69c.21,0,.42,0,.63,0a1,1,0,0,1,1,.91.93.93,0,0,1-1,.95c-1.16,0-2.31,0-3.46,0Z"/><path class="cls-1" d="M11.64,15.18h3.71c.72,0,1.16.38,1.15,1s-.44.92-1.12.92H7.89c-.69,0-1.09-.35-1.1-.93s.39-1,1.08-1Z"/><path class="cls-1" d="M37.85,33.68h5.47c.76,0,1.17.34,1.17.92s-.41,1-1.14,1h-11c-.74,0-1.15-.38-1.14-1s.41-.91,1.18-.92Z"/><path class="cls-1" d="M37.91,37.2h5.47a1,1,0,0,1,1.06.62.9.9,0,0,1-.6,1.19,2.76,2.76,0,0,1-.81.08H32.72a4.13,4.13,0,0,1-.5,0,.93.93,0,0,1-1-1,.91.91,0,0,1,1-.91c1.19,0,2.39,0,3.58,0Z"/><path class="cls-1" d="M37.87,30.16h4.28c.72,0,1.11.33,1.13.9s-.4,1-1.12,1c-2.85,0-5.71,0-8.56,0-.72,0-1.15-.39-1.14-1s.42-.9,1.13-.91Z"/><path class="cls-1" d="M37.87,42.61c-.88,0-1.76,0-2.64,0s-1.18-.37-1.17-.94.43-.94,1.17-.94h5.29c.74,0,1.18.37,1.18.94s-.45.93-1.18.94C39.64,42.62,38.75,42.61,37.87,42.61Z"/></g></g></svg>